# Blender 4.3.2
# www.blender.org
mtllib fortuneWheel.mtl
o Circle
v 0.000000 0.000000 0.000000
v 0.000000 0.000000 -1.000000
v -1.000000 0.000000 0.000000
v -0.707107 0.000000 0.707107
v 0.000000 0.000000 1.000000
v 0.707107 0.000000 0.707107
v 0.707107 0.000000 -0.707107
v -0.707107 0.100000 -0.707107
v 0.000000 0.100000 -1.000000
v -0.010256 0.100000 0.000000
v -1.000000 0.100000 0.000000
v -0.707107 0.100000 0.707107
v 0.000000 0.100000 1.000000
v 0.707107 0.100000 0.707107
v 1.000000 0.100000 0.000000
v 0.707107 0.100000 -0.707107
v -0.707107 0.125000 -0.707107
v 0.000000 0.125000 -1.000000
v -0.010256 0.125000 0.000000
v -1.000000 0.125000 0.000000
v -0.707107 0.125000 0.707107
v 0.000000 0.125000 1.000000
v 0.707107 0.125000 0.707107
v 1.000000 0.125000 0.000000
v 0.707107 0.125000 -0.707107
v -0.195090 0.000000 -0.980785
v -0.382683 0.000000 -0.923880
v -0.555570 0.000000 -0.831470
v -0.707107 0.000000 -0.707107
v -0.831470 0.000000 -0.555570
v -0.923880 0.000000 -0.382683
v -0.980785 0.000000 -0.195090
v -0.980785 0.000000 0.195090
v -0.923880 0.000000 0.382683
v -0.831470 0.000000 0.555570
v -0.555570 0.000000 0.831470
v -0.382683 0.000000 0.923880
v -0.195090 0.000000 0.980785
v 0.195090 0.000000 0.980785
v 0.382683 0.000000 0.923880
v 0.555570 0.000000 0.831470
v 0.831470 0.000000 0.555570
v 0.923880 0.000000 0.382683
v 0.980785 0.000000 0.195090
v 1.000000 0.000000 0.000000
v 0.980785 0.000000 -0.195090
v 0.923880 0.000000 -0.382683
v 0.831470 0.000000 -0.555570
v 0.555570 0.000000 -0.831470
v 0.382683 0.000000 -0.923880
v 0.195090 0.000000 -0.980785
v -0.701099 0.100000 -0.713115
v -0.008496 0.100000 -1.000000
v -1.000000 0.100000 -0.008496
v -0.713115 0.100000 0.701099
v -0.008496 0.100000 1.000000
v 0.701099 0.100000 0.713115
v 1.000000 0.100000 0.008496
v 0.713115 0.100000 -0.701099
v -0.701099 0.125000 -0.713115
v -0.008496 0.125000 -1.000000
v -1.000000 0.125000 -0.008496
v -0.713115 0.125000 0.701099
v -0.008496 0.125000 1.000000
v 0.701099 0.125000 0.713115
v 1.000000 0.125000 0.008496
v 0.713115 0.125000 -0.701099
vn -0.0000 1.0000 -0.0000
vn 0.3827 -0.0000 -0.9239
vn 0.9239 -0.0000 -0.3827
vn 0.9239 -0.0000 0.3827
vn -0.3827 -0.0000 -0.9239
vn 0.3827 -0.0000 0.9239
vn -0.3827 -0.0000 0.9239
vn -0.9239 -0.0000 0.3827
vn -0.9239 -0.0000 -0.3827
vn -0.0000 -1.0000 -0.0000
vn -0.7071 -0.0000 -0.7071
vn 1.0000 -0.0000 -0.0000
vn 0.6960 -0.0000 0.7181
vn -0.0084 -0.0000 1.0000
vn 0.7182 -0.0000 -0.6958
vn -0.7080 -0.0000 0.7062
vn -1.0000 -0.0000 0.0018
vn -0.7062 -0.0000 -0.7080
vn 0.0086 -0.0000 -1.0000
vn -1.0000 -0.0000 -0.0018
vn 0.7071 -0.0000 0.7071
vn -0.0000 -0.0000 1.0000
vn -0.7071 -0.0000 0.7071
vn -1.0000 -0.0000 -0.0000
vn 0.7071 -0.0000 -0.7071
vn -0.0000 -0.0000 -1.0000
vn 0.9999 -0.0000 -0.0103
vn 0.7020 -0.0000 -0.7122
vn -0.7020 -0.0000 -0.7122
vn 0.9999 -0.0000 0.0103
vn -0.7123 -0.0000 0.7019
vn 0.7123 -0.0000 0.7019
vt 0.214847 0.675149
vt 0.020541 0.757977
vt 0.020541 0.596322
vt 0.134849 0.482015
vt 0.296504 0.482015
vt 0.410811 0.596322
vt 0.410811 0.757977
vt 0.296504 0.872285
vt 0.134849 0.872285
vt 0.750791 0.360323
vt 0.750791 0.509782
vt 0.729670 0.509782
vt 0.729670 0.360323
vt 0.688587 0.169891
vt 0.688587 0.319241
vt 0.667466 0.319241
vt 0.667466 0.169891
vt 0.688587 0.020541
vt 0.667466 0.020541
vt 0.750791 0.659023
vt 0.729670 0.659023
vt 0.729670 0.169784
vt 0.729670 0.020541
vt 0.750791 0.020541
vt 0.750791 0.169784
vt 0.729670 0.319240
vt 0.750791 0.319240
vt 0.688587 0.509673
vt 0.688587 0.659023
vt 0.667466 0.659023
vt 0.667466 0.509673
vt 0.688587 0.360323
vt 0.667466 0.360323
vt 0.920504 0.229588
vt 0.920504 0.020541
vt 0.922299 0.020541
vt 0.793668 0.528206
vt 0.793668 0.739429
vt 0.791874 0.528224
vt 0.580021 0.082404
vt 0.574740 0.082404
vt 0.574740 0.081135
vt 0.580021 0.081135
vt 0.879422 0.522123
vt 0.877627 0.731802
vt 0.877627 0.522121
vt 0.791874 0.233291
vt 0.791874 0.020541
vt 0.793668 0.020554
vt 0.020541 0.918648
vt 0.020541 0.913367
vt 0.022336 0.913367
vt 0.022336 0.918648
vt 0.834751 0.231765
vt 0.834751 0.020541
vt 0.836545 0.231747
vt 0.667466 0.909152
vt 0.667466 0.700106
vt 0.669261 0.909152
vt 0.067467 0.364729
vt 0.044464 0.330302
vt 0.028619 0.292049
vt 0.020541 0.251439
vt 0.020541 0.210034
vt 0.028619 0.169425
vt 0.044464 0.131172
vt 0.067467 0.096745
vt 0.096745 0.067467
vt 0.131172 0.044464
vt 0.169425 0.028619
vt 0.210034 0.020541
vt 0.251439 0.020541
vt 0.292049 0.028619
vt 0.330302 0.044464
vt 0.364729 0.067467
vt 0.394006 0.096745
vt 0.417010 0.131172
vt 0.432855 0.169425
vt 0.440932 0.210034
vt 0.440932 0.251439
vt 0.432855 0.292049
vt 0.417010 0.330302
vt 0.394006 0.364729
vt 0.364729 0.394006
vt 0.330302 0.417010
vt 0.292049 0.432855
vt 0.251439 0.440932
vt 0.210034 0.440932
vt 0.169425 0.432855
vt 0.131172 0.417010
vt 0.096745 0.394006
vt 0.487295 0.382116
vt 0.482015 0.382116
vt 0.482015 0.229587
vt 0.487295 0.229587
vt 0.487295 0.442969
vt 0.482015 0.442969
vt 0.626384 0.382373
vt 0.621103 0.382373
vt 0.621103 0.231754
vt 0.626384 0.231754
vt 0.580021 0.382373
vt 0.574740 0.382373
vt 0.574740 0.231754
vt 0.580021 0.231754
vt 0.580021 0.442966
vt 0.574740 0.442966
vt 0.533658 0.382110
vt 0.528378 0.382110
vt 0.528378 0.233920
vt 0.533658 0.233920
vt 0.533658 0.442969
vt 0.528378 0.442969
vt 0.574740 0.020541
vt 0.580021 0.020541
vt 0.234403 0.918648
vt 0.234403 0.913367
vt 0.235672 0.913367
vt 0.235672 0.918648
vt 0.576535 0.697435
vt 0.574741 0.484064
vt 0.576535 0.484049
vt 0.793668 0.274373
vt 0.793668 0.487123
vt 0.791874 0.274386
vt 0.149172 0.918648
vt 0.149172 0.913367
vt 0.150967 0.913367
vt 0.150967 0.918648
vt 0.619412 0.484064
vt 0.617617 0.697435
vt 0.617617 0.484049
vt 0.731464 0.909786
vt 0.729670 0.700107
vt 0.731464 0.700105
vt 0.192049 0.918648
vt 0.192049 0.913367
vt 0.193320 0.913367
vt 0.193320 0.918648
vt 0.482015 0.484051
vt 0.483809 0.696794
vt 0.482015 0.696822
vt 0.524892 0.696794
vt 0.526686 0.484051
vt 0.526686 0.696822
vt 0.877627 0.230220
vt 0.879422 0.020541
vt 0.879422 0.230248
vt 0.063418 0.918648
vt 0.063418 0.913367
vt 0.065213 0.913367
vt 0.065213 0.918648
vt 0.533658 0.082668
vt 0.528378 0.082668
vt 0.528378 0.081397
vt 0.533658 0.081397
vt 0.834751 0.484071
vt 0.834751 0.272847
vt 0.836545 0.272866
vt 0.836545 0.525154
vt 0.836545 0.736377
vt 0.834751 0.736359
vt 0.108090 0.913367
vt 0.108090 0.918648
vt 0.106295 0.918648
vt 0.106295 0.913367
vt 0.877627 0.271331
vt 0.879422 0.481010
vt 0.877627 0.481038
vt 0.621103 0.020541
vt 0.626384 0.020541
vt 0.528378 0.082140
vt 0.533658 0.082140
vt 0.528378 0.020541
vt 0.533658 0.020541
vt 0.626384 0.442966
vt 0.621103 0.442966
vt 0.482015 0.020541
vt 0.487295 0.020541
vt 0.621103 0.082404
vt 0.626384 0.082404
vt 0.938846 0.894917
vt 0.934788 0.853712
vt 0.938846 0.812506
vt 0.950865 0.772884
vt 0.950865 0.934539
vt 0.494034 0.777526
vt 0.498092 0.818732
vt 0.494034 0.859937
vt 0.482015 0.899559
vt 0.482015 0.737904
vt 0.893705 0.853712
vt 0.889647 0.894917
vt 0.877627 0.934539
vt 0.877627 0.772884
vt 0.889647 0.812506
vt 0.932523 0.310953
vt 0.936582 0.352159
vt 0.932523 0.393364
vt 0.920504 0.432986
vt 0.920504 0.271331
vt 0.586760 0.778140
vt 0.590818 0.819345
vt 0.586760 0.860551
vt 0.574740 0.900173
vt 0.574740 0.738518
vt 0.963381 0.101369
vt 0.967440 0.060163
vt 0.979459 0.020541
vt 0.979459 0.182196
vt 0.967440 0.142574
vt 0.924563 0.692180
vt 0.920504 0.650974
vt 0.924563 0.609769
vt 0.936582 0.570147
vt 0.936582 0.731802
vt 0.795932 0.902545
vt 0.791874 0.861339
vt 0.795932 0.820134
vt 0.807951 0.780512
vt 0.807951 0.942167
s 0
f 10/1/1 9/2/1 8/3/1
f 10/1/1 8/3/1 11/4/1
f 10/1/1 11/4/1 12/5/1
f 10/1/1 12/5/1 13/6/1
f 10/1/1 13/6/1 14/7/1
f 10/1/1 14/7/1 15/8/1
f 10/1/1 15/8/1 16/9/1
f 10/1/1 16/9/1 9/2/1
f 7/10/2 2/11/2 9/12/2 16/13/2
f 45/14/3 7/15/3 16/16/3 15/17/3
f 6/18/4 45/14/4 15/17/4 14/19/4
f 2/11/5 29/20/5 8/21/5 9/12/5
f 5/22/6 6/23/6 14/24/6 13/25/6
f 4/26/7 5/22/7 13/25/7 12/27/7
f 3/28/8 4/29/8 12/30/8 11/31/8
f 29/32/9 3/28/9 11/31/9 8/33/9
f 10/34/10 11/35/10 54/36/10
f 22/37/1 19/38/1 64/39/1
f 8/40/11 17/41/11 60/42/11 52/43/11
f 21/44/1 19/45/1 63/46/1
f 10/47/10 14/48/10 57/49/10
f 15/50/12 24/51/12 66/52/12 58/53/12
f 9/54/10 10/55/10 53/56/10
f 20/57/1 19/58/1 62/59/1
f 2/60/10 51/61/10 50/62/10 49/63/10 7/64/10 48/65/10 47/66/10 46/67/10 45/68/10 44/69/10 43/70/10 42/71/10 6/72/10 41/73/10 40/74/10 39/75/10 5/76/10 38/77/10 37/78/10 36/79/10 4/80/10 35/81/10 34/82/10 33/83/10 3/84/10 32/85/10 31/86/10 30/87/10 29/88/10 28/89/10 27/90/10 26/91/10
f 59/92/13 67/93/13 19/94/13 10/95/13
f 58/96/14 66/97/14 19/94/14 10/95/14
f 52/98/15 60/99/15 19/100/15 10/101/15
f 57/102/16 65/103/16 19/104/16 10/105/16
f 56/106/17 64/107/17 19/104/17 10/105/17
f 55/108/18 63/109/18 19/110/18 10/111/18
f 54/112/19 62/113/19 19/110/19 10/111/19
f 10/105/20 19/104/20 61/114/20 53/115/20
f 14/116/21 23/117/21 65/118/21 57/119/21
f 10/120/10 15/121/10 58/122/10
f 23/123/1 19/124/1 65/125/1
f 13/126/22 22/127/22 64/128/22 56/129/22
f 24/130/1 19/131/1 66/132/1
f 10/133/10 12/134/10 55/135/10
f 12/136/23 21/137/23 63/138/23 55/139/23
f 10/140/10 16/141/10 59/142/10
f 25/143/1 19/144/1 67/145/1
f 17/146/1 19/147/1 60/148/1
f 11/149/24 20/150/24 62/151/24 54/152/24
f 16/153/25 25/154/25 67/155/25 59/156/25
f 10/157/10 13/158/10 56/159/10
f 19/160/1 18/161/1 61/162/1
f 18/163/26 9/164/26 53/165/26 61/166/26
f 10/167/10 8/168/10 52/169/10
f 10/101/27 19/100/27 22/170/27 13/171/27
f 10/111/28 19/110/28 23/172/28 14/173/28
f 10/111/26 19/110/26 24/174/26 15/175/26
f 10/111/29 19/110/29 25/154/29 16/153/29
f 9/176/30 18/177/30 19/100/30 10/101/30
f 17/41/31 8/40/31 10/105/31 19/104/31
f 10/95/22 19/94/22 20/178/22 11/179/22
f 10/101/32 19/100/32 21/180/32 12/181/32
f 36/182/1 37/183/1 38/184/1 5/185/1 4/186/1
f 39/187/1 40/188/1 41/189/1 6/190/1 5/191/1
f 43/192/1 44/193/1 45/194/1 6/195/1 42/196/1
f 46/197/1 47/198/1 48/199/1 7/200/1 45/201/1
f 49/202/1 50/203/1 51/204/1 2/205/1 7/206/1
f 27/207/1 28/208/1 29/209/1 2/210/1 26/211/1
f 30/212/1 31/213/1 32/214/1 3/215/1 29/216/1
f 33/217/1 34/218/1 35/219/1 4/220/1 3/221/1
