# Blender 4.3.2
# www.blender.org
mtllib fortuneWheel.mtl
o Circle
v 0.000000 0.000000 0.000000
v 0.000000 0.000000 -1.000000
v -1.000000 0.000000 0.000000
v -0.707107 0.000000 0.707107
v 0.000000 0.000000 1.000000
v 0.707107 0.000000 0.707107
v 0.707107 0.000000 -0.707107
v -0.707107 0.100000 -0.707107
v 0.000000 0.100000 -1.000000
v -0.010256 0.100000 0.000000
v -1.000000 0.100000 0.000000
v -0.707107 0.100000 0.707107
v 0.000000 0.100000 1.000000
v 0.707107 0.100000 0.707107
v 1.000000 0.100000 0.000000
v 0.707107 0.100000 -0.707107
v -0.707107 0.125000 -0.707107
v 0.000000 0.125000 -1.000000
v -0.010256 0.125000 0.000000
v -1.000000 0.125000 0.000000
v -0.707107 0.125000 0.707107
v 0.000000 0.125000 1.000000
v 0.707107 0.125000 0.707107
v 1.000000 0.125000 0.000000
v 0.707107 0.125000 -0.707107
v -0.195090 0.000000 -0.980785
v -0.382683 0.000000 -0.923880
v -0.555570 0.000000 -0.831470
v -0.707107 0.000000 -0.707107
v -0.831470 0.000000 -0.555570
v -0.923880 0.000000 -0.382683
v -0.980785 0.000000 -0.195090
v -0.980785 0.000000 0.195090
v -0.923880 0.000000 0.382683
v -0.831470 0.000000 0.555570
v -0.555570 0.000000 0.831470
v -0.382683 0.000000 0.923880
v -0.195090 0.000000 0.980785
v 0.195090 0.000000 0.980785
v 0.382683 0.000000 0.923880
v 0.555570 0.000000 0.831470
v 0.831470 0.000000 0.555570
v 0.923880 0.000000 0.382683
v 0.980785 0.000000 0.195090
v 1.000000 0.000000 0.000000
v 0.980785 0.000000 -0.195090
v 0.923880 0.000000 -0.382683
v 0.831470 0.000000 -0.555570
v 0.555570 0.000000 -0.831470
v 0.382683 0.000000 -0.923880
v 0.195090 0.000000 -0.980785
v -0.701099 0.100000 -0.713115
v -0.008496 0.100000 -1.000000
v -1.000000 0.100000 -0.008496
v -0.713115 0.100000 0.701099
v -0.008496 0.100000 1.000000
v 0.701099 0.100000 0.713115
v 1.000000 0.100000 0.008496
v 0.713115 0.100000 -0.701099
v -0.701099 0.125000 -0.713115
v -0.008496 0.125000 -1.000000
v -1.000000 0.125000 -0.008496
v -0.713115 0.125000 0.701099
v -0.008496 0.125000 1.000000
v 0.701099 0.125000 0.713115
v 1.000000 0.125000 0.008496
v 0.713115 0.125000 -0.701099
vn -0.0000 1.0000 -0.0000
vn 0.3827 -0.0000 -0.9239
vn 0.9239 -0.0000 -0.3827
vn 0.9239 -0.0000 0.3827
vn -0.3827 -0.0000 -0.9239
vn 0.3827 -0.0000 0.9239
vn -0.3827 -0.0000 0.9239
vn -0.9239 -0.0000 0.3827
vn -0.9239 -0.0000 -0.3827
vn -0.0000 -1.0000 -0.0000
vn -0.7071 -0.0000 -0.7071
vn 1.0000 -0.0000 -0.0000
vn 0.6960 -0.0000 0.7181
vn -0.0084 -0.0000 1.0000
vn 0.7182 -0.0000 -0.6958
vn -0.7080 -0.0000 0.7062
vn -1.0000 -0.0000 0.0018
vn -0.7062 -0.0000 -0.7080
vn 0.0086 -0.0000 -1.0000
vn -1.0000 -0.0000 -0.0018
vn 0.7071 -0.0000 0.7071
vn -0.0000 -0.0000 1.0000
vn -0.7071 -0.0000 0.7071
vn -1.0000 -0.0000 -0.0000
vn 0.7071 -0.0000 -0.7071
vn -0.0000 -0.0000 -1.0000
vn 0.9999 -0.0000 -0.0103
vn 0.7020 -0.0000 -0.7122
vn -0.7020 -0.0000 -0.7122
vn 0.9999 -0.0000 0.0103
vn -0.7123 -0.0000 0.7019
vn 0.7123 -0.0000 0.7019
vt 0.500000 0.500000
vt 0.500000 1.000000
vt 0.146447 0.853553
vt 0.000000 0.500000
vt 0.146447 0.146447
vt 0.500000 0.000000
vt 0.853553 0.146447
vt 1.000000 0.500000
vt 0.853553 0.853553
vt 0.000000 0.000000
vt 0.597545 0.990393
vt 0.691342 0.961940
vt 0.777785 0.915735
vt 0.915735 0.777785
vt 0.961940 0.691342
vt 0.990393 0.597545
vt 0.990393 0.402455
vt 0.961940 0.308658
vt 0.915735 0.222215
vt 0.777785 0.084265
vt 0.691342 0.038060
vt 0.597545 0.009607
vt 0.402455 0.009607
vt 0.308658 0.038060
vt 0.222215 0.084265
vt 0.084265 0.222215
vt 0.038060 0.308658
vt 0.009607 0.402455
vt 0.009607 0.597545
vt 0.038060 0.691342
vt 0.084265 0.777785
vt 0.222215 0.915735
vt 0.308658 0.961940
vt 0.402455 0.990393
s 0
f 10/1/1 9/2/1 8/3/1
f 10/1/1 8/3/1 11/4/1
f 10/1/1 11/4/1 12/5/1
f 10/1/1 12/5/1 13/6/1
f 10/1/1 13/6/1 14/7/1
f 10/1/1 14/7/1 15/8/1
f 10/1/1 15/8/1 16/9/1
f 10/1/1 16/9/1 9/2/1
f 7/9/2 2/2/2 9/2/2 16/9/2
f 45/8/3 7/9/3 16/9/3 15/8/3
f 6/7/4 45/8/4 15/8/4 14/7/4
f 2/2/5 29/3/5 8/3/5 9/2/5
f 5/6/6 6/7/6 14/7/6 13/6/6
f 4/5/7 5/6/7 13/6/7 12/5/7
f 3/4/8 4/5/8 12/5/8 11/4/8
f 29/3/9 3/4/9 11/4/9 8/3/9
f 10/1/10 11/4/10 54/4/10
f 22/10/1 19/10/1 64/10/1
f 8/10/11 17/10/11 60/10/11 52/10/11
f 21/10/1 19/10/1 63/10/1
f 10/1/10 14/7/10 57/7/10
f 15/10/12 24/10/12 66/10/12 58/10/12
f 9/2/10 10/1/10 53/2/10
f 20/10/1 19/10/1 62/10/1
f 2/2/10 51/11/10 50/12/10 49/13/10 7/9/10 48/14/10 47/15/10 46/16/10 45/8/10 44/17/10 43/18/10 42/19/10 6/7/10 41/20/10 40/21/10 39/22/10 5/6/10 38/23/10 37/24/10 36/25/10 4/5/10 35/26/10 34/27/10 33/28/10 3/4/10 32/29/10 31/30/10 30/31/10 29/3/10 28/32/10 27/33/10 26/34/10
f 59/9/13 67/9/13 19/1/13 10/1/13
f 58/8/14 66/8/14 19/1/14 10/1/14
f 52/3/15 60/10/15 19/1/15 10/1/15
f 57/7/16 65/7/16 19/1/16 10/1/16
f 56/6/17 64/6/17 19/1/17 10/1/17
f 55/5/18 63/5/18 19/1/18 10/1/18
f 54/4/19 62/4/19 19/1/19 10/1/19
f 10/1/20 19/10/20 61/10/20 53/2/20
f 14/10/21 23/10/21 65/10/21 57/10/21
f 10/1/10 15/8/10 58/8/10
f 23/10/1 19/10/1 65/10/1
f 13/10/22 22/10/22 64/10/22 56/10/22
f 24/10/1 19/10/1 66/10/1
f 10/1/10 12/5/10 55/5/10
f 12/10/23 21/10/23 63/10/23 55/10/23
f 10/1/10 16/9/10 59/9/10
f 25/10/1 19/10/1 67/10/1
f 17/10/1 19/10/1 60/10/1
f 11/10/24 20/10/24 62/10/24 54/10/24
f 16/10/25 25/10/25 67/10/25 59/10/25
f 10/1/10 13/6/10 56/6/10
f 19/10/1 18/10/1 61/10/1
f 18/10/26 9/10/26 53/10/26 61/10/26
f 10/1/10 8/3/10 52/3/10
f 10/1/27 19/10/27 22/10/27 13/10/27
f 10/1/28 19/10/28 23/10/28 14/10/28
f 10/1/26 19/10/26 24/10/26 15/10/26
f 10/1/29 19/10/29 25/10/29 16/10/29
f 9/10/30 18/10/30 19/10/30 10/1/30
f 17/10/31 8/10/31 10/1/31 19/10/31
f 10/1/22 19/10/22 20/10/22 11/10/22
f 10/1/32 19/10/32 21/10/32 12/10/32
f 36/25/1 37/24/1 38/23/1 5/6/1 4/5/1
f 39/22/1 40/21/1 41/20/1 6/7/1 5/6/1
f 43/18/1 44/17/1 45/8/1 6/7/1 42/19/1
f 46/16/1 47/15/1 48/14/1 7/9/1 45/8/1
f 49/13/1 50/12/1 51/11/1 2/2/1 7/9/1
f 27/33/1 28/32/1 29/3/1 2/2/1 26/34/1
f 30/31/1 31/30/1 32/29/1 3/4/1 29/3/1
f 33/28/1 34/27/1 35/26/1 4/5/1 3/4/1
